<?xml version="1.0" encoding="UTF-8" standalone="no"?>
<svg
   xmlns:dc="http://purl.org/dc/elements/1.1/"
   xmlns:cc="http://creativecommons.org/ns#"
   xmlns:rdf="http://www.w3.org/1999/02/22-rdf-syntax-ns#"
   xmlns:svg="http://www.w3.org/2000/svg"
   xmlns="http://www.w3.org/2000/svg"
   xmlns:sodipodi="http://sodipodi.sourceforge.net/DTD/sodipodi-0.dtd"
   xmlns:inkscape="http://www.inkscape.org/namespaces/inkscape"
   width="390.57968pt"
   height="390.56873pt"
   version="1.1"
   viewBox="0 0 390.57968 390.56873"
   id="svg1131"
   sodipodi:docname="noun-wing-5081305.svg"
   inkscape:version="0.92.5 (2060ec1f9f, 2020-04-08)">
  <metadata
     id="metadata1135">
    <rdf:RDF>
      <cc:Work
         rdf:about="">
        <dc:format>image/svg+xml</dc:format>
        <dc:type
           rdf:resource="http://purl.org/dc/dcmitype/StillImage" />
        <dc:title></dc:title>
      </cc:Work>
    </rdf:RDF>
  </metadata>
  <sodipodi:namedview
     pagecolor="#ffffff"
     bordercolor="#666666"
     borderopacity="1"
     objecttolerance="10"
     gridtolerance="10"
     guidetolerance="10"
     inkscape:pageopacity="0"
     inkscape:pageshadow="2"
     inkscape:window-width="1848"
     inkscape:window-height="1016"
     id="namedview1133"
     showgrid="false"
     scale-x="0.95"
     inkscape:zoom="0.89785714"
     inkscape:cx="261.368"
     inkscape:cy="168.02999"
     inkscape:window-x="72"
     inkscape:window-y="27"
     inkscape:window-maximized="1"
     inkscape:current-layer="svg1131"
     fit-margin-top="0"
     fit-margin-left="0"
     fit-margin-right="0"
     fit-margin-bottom="0" />
  <defs
     id="defs1055">
    <symbol
       id="t"
       overflow="visible"
       style="overflow:visible">
      <path
         d="M 1.8281,-0.10938 C 1.73435,-0.054692 1.63279,-0.019536 1.53122,0 1.43747,0.019531 1.332,0.03125 1.21872,0.03125 c -0.33594,0 -0.60156,-0.085938 -0.79688,-0.26562 -0.1875,-0.1875 -0.28125,-0.44141 -0.28125,-0.76562 0,-0.3125 0.09375,-0.5625 0.28125,-0.75 0.19531,-0.1875 0.46094,-0.28125 0.79688,-0.28125 0.11328,0 0.21875,0.015625 0.3125,0.046875 0.10156,0.023437 0.20312,0.058594 0.29688,0.10938 v 0.40625 C 1.73435,-1.531235 1.6406,-1.578115 1.54685,-1.609355 1.4531,-1.640595 1.35154,-1.65623 1.24997,-1.65623 c -0.17969,0 -0.32031,0.0625 -0.42188,0.1875 -0.10547,0.11719 -0.15625,0.27344 -0.15625,0.46875 0,0.21094 0.050781,0.375 0.15625,0.5 0.10156,0.11719 0.24219,0.17188 0.42188,0.17188 0.10156,0 0.20312,-0.015625 0.29688,-0.046875 0.09376,-0.03125 0.1875,-0.078125 0.28125,-0.14062 z"
         id="path995"
         inkscape:connector-curvature="0" />
    </symbol>
    <symbol
       id="d"
       overflow="visible"
       style="overflow:visible">
      <path
         d="M 1.3438,-1.0938 C 1.300831,-1.113331 1.257862,-1.12505 1.2188,-1.12505 1.175831,-1.132862 1.132862,-1.140675 1.0938,-1.140675 c -0.125,0 -0.22656,0.042969 -0.29688,0.125 -0.0625,0.074219 -0.09375,0.18359 -0.09375,0.32812 v 0.6875 H 0.23442 v -1.5 h 0.46875 v 0.25 c 0.0625,-0.09375 0.12891,-0.16016 0.20312,-0.20312 C 0.988321,-1.503956 1.08598,-1.5313 1.20317,-1.5313 h 0.046875 c 0.019531,0 0.050781,0.00781 0.09375,0.015625 z"
         id="path998"
         inkscape:connector-curvature="0" />
    </symbol>
    <symbol
       id="a"
       overflow="visible"
       style="overflow:visible">
      <path
         d="m 1.7188,-0.75 v 0.14062 H 0.6094 c 0.007813,0.10547 0.046875,0.1875 0.10938,0.25 0.070312,0.054687 0.17188,0.078125 0.29688,0.078125 0.10156,0 0.20703,-0.015625 0.3125,-0.046875 0.10156,-0.03125 0.21094,-0.070313 0.32812,-0.125 v 0.35938 C 1.53909,-0.050781 1.42581,-0.019531 1.31253,0 1.19534,0.019531 1.08206,0.03125 0.96878,0.03125 c -0.27344,0 -0.48047,-0.066406 -0.625,-0.20312 -0.14844,-0.13281 -0.21875,-0.32812 -0.21875,-0.57812 0,-0.23828 0.070312,-0.42578 0.21875,-0.5625 0.14453,-0.14453 0.34766,-0.21875 0.60938,-0.21875 0.22656,0 0.41016,0.074219 0.54688,0.21875 0.14453,0.13672 0.21875,0.32422 0.21875,0.5625 z M 1.23442,-0.90625 C 1.23442,-1 1.207076,-1.07031 1.156295,-1.125 c -0.054688,-0.0625 -0.125,-0.09375 -0.21875,-0.09375 -0.085938,0 -0.15625,0.027344 -0.21875,0.078125 -0.0625,0.054687 -0.10156,0.13281 -0.10938,0.23438 z"
         id="path1001"
         inkscape:connector-curvature="0" />
    </symbol>
    <symbol
       id="e"
       overflow="visible"
       style="overflow:visible">
      <path
         d="m 0.90625,-0.67188 c -0.10547,0 -0.18359,0.015625 -0.23438,0.046875 -0.054687,0.03125 -0.078125,0.085938 -0.078125,0.15625 0,0.0625 0.019531,0.10938 0.0625,0.14062 0.039062,0.03125 0.097656,0.046875 0.17188,0.046875 0.09375,0 0.16406,-0.03125 0.21875,-0.09375 0.0625,-0.0625 0.09375,-0.14453 0.09375,-0.25 V -0.671885 Z M 1.625,-0.85938 V 0 H 1.14062 V -0.21875 C 1.07812,-0.125 1.0039,-0.05469 0.92187,-0.01563 0.847651,0.01562 0.7539,0.031245 0.64062,0.031245 c -0.15625,0 -0.28125,-0.039062 -0.375,-0.125 -0.09375,-0.09375 -0.14062,-0.21094 -0.14062,-0.35938 0,-0.17578 0.054688,-0.30078 0.17188,-0.375 0.125,-0.082031 0.3125,-0.125 0.5625,-0.125 H 1.14063 V -1.00001 c 0,-0.070312 -0.03125,-0.125 -0.09375,-0.15625 -0.054687,-0.039062 -0.14062,-0.0625 -0.26562,-0.0625 -0.10547,0 -0.20312,0.011719 -0.29688,0.03125 C 0.398443,-1.164072 0.32032,-1.132822 0.25,-1.09376 v -0.35938 c 0.10156,-0.03125 0.20703,-0.050781 0.3125,-0.0625 0.10156,-0.00781 0.20312,-0.015625 0.29688,-0.015625 0.26953,0 0.46094,0.054688 0.57812,0.15625 0.125,0.10547 0.1875,0.27734 0.1875,0.51562 z"
         id="path1004"
         inkscape:connector-curvature="0" />
    </symbol>
    <symbol
       id="c"
       overflow="visible"
       style="overflow:visible">
      <path
         d="m 0.75,-1.9219 v 0.42188 h 0.5 v 0.34375 h -0.5 v 0.64062 c 0,0.0625 0.007812,0.10938 0.03125,0.14062 0.03125,0.023438 0.085938,0.03125 0.17188,0.03125 h 0.25 V -3e-5 H 0.79688 C 0.60938,-3e-5 0.47266,-0.035186 0.39063,-0.10941 0.316411,-0.191441 0.28125,-0.32816 0.28125,-0.51566 v -0.64062 h -0.25 v -0.34375 h 0.25 v -0.42188 z"
         id="path1007"
         inkscape:connector-curvature="0" />
    </symbol>
    <symbol
       id="l"
       overflow="visible"
       style="overflow:visible">
      <path
         d="M 1.25,-1.2812 V -2.07808 H 1.73438 V 2e-5 H 1.25 V -0.21873 C 1.175781,-0.12498 1.09766,-0.05467 1.01562,-0.01561 0.941401,0.01564 0.85156,0.031265 0.75,0.031265 c -0.17969,0 -0.32812,-0.070312 -0.45312,-0.21875 -0.11719,-0.14453 -0.17188,-0.33203 -0.17188,-0.5625 0,-0.22656 0.054688,-0.41406 0.17188,-0.5625 0.125,-0.14453 0.27344,-0.21875 0.45312,-0.21875 0.10156,0 0.19141,0.023438 0.26562,0.0625 0.082031,0.042969 0.16016,0.10547 0.23438,0.1875 z m -0.3125,0.96875 c 0.09375,0 0.16406,-0.035156 0.21875,-0.10938 C 1.21875,-0.492143 1.25,-0.60152 1.25,-0.74995 c 0,-0.13281 -0.03125,-0.23828 -0.09375,-0.3125 -0.054688,-0.082031 -0.125,-0.125 -0.21875,-0.125 -0.10547,0 -0.18359,0.042969 -0.23438,0.125 -0.054687,0.074219 -0.078125,0.17969 -0.078125,0.3125 0,0.14844 0.023438,0.25781 0.078125,0.32812 0.050781,0.074219 0.12891,0.10938 0.23438,0.10938 z"
         id="path1010"
         inkscape:connector-curvature="0" />
    </symbol>
    <symbol
       id="k"
       overflow="visible"
       style="overflow:visible">
      <path
         d="m 1.0312,-0.3125 c 0.09375,0 0.16406,-0.035156 0.21875,-0.10938 0.0625,-0.070313 0.09375,-0.17969 0.09375,-0.32812 0,-0.13281 -0.03125,-0.23828 -0.09375,-0.3125 -0.054688,-0.082031 -0.125,-0.125 -0.21875,-0.125 -0.10547,0 -0.1875,0.042969 -0.25,0.125 -0.054688,0.074219 -0.078125,0.17969 -0.078125,0.3125 0,0.14844 0.023437,0.25781 0.078125,0.32812 0.0625,0.074219 0.14453,0.10938 0.25,0.10938 z M 0.70308,-1.28125 c 0.070313,-0.082031 0.14453,-0.14453 0.21875,-0.1875 0.082031,-0.039062 0.17578,-0.0625 0.28125,-0.0625 0.1875,0 0.33594,0.074219 0.45312,0.21875 0.11328,0.14844 0.17188,0.33594 0.17188,0.5625 0,0.23047 -0.058594,0.41797 -0.17188,0.5625 -0.11719,0.14844 -0.26562,0.21875 -0.45312,0.21875 -0.10547,0 -0.19922,-0.015625 -0.28125,-0.046875 -0.074219,-0.039062 -0.14844,-0.10938 -0.21875,-0.20312 V 5e-6 H 0.23433 v -2.0781 h 0.46875 z"
         id="path1013"
         inkscape:connector-curvature="0" />
    </symbol>
    <symbol
       id="j"
       overflow="visible"
       style="overflow:visible">
      <path
         d="M 0.03125,-1.5 H 0.51563 L 0.90625,-0.4844 1.25,-1.5 h 0.48438 l -0.625,1.6406 C 1.04688,0.30466 0.96876,0.42185 0.875,0.48435 0.789062,0.554663 0.67969,0.59373 0.54688,0.59373 H 0.28126 v -0.3125 h 0.14062 c 0.082031,0 0.14062,-0.015625 0.17188,-0.046875 0.039062,-0.023437 0.070312,-0.070313 0.09375,-0.14062 l 0.015625,-0.03125 z"
         id="path1016"
         inkscape:connector-curvature="0" />
    </symbol>
    <symbol
       id="i"
       overflow="visible"
       style="overflow:visible">
      <path
         d="M 0.25,-2 H 0.76562 V 0 H 0.25 Z"
         id="path1019"
         inkscape:connector-curvature="0" />
    </symbol>
    <symbol
       id="h"
       overflow="visible"
       style="overflow:visible">
      <path
         d="m 1.4375,-1.4531 v 0.39062 C 1.375,-1.101542 1.30469,-1.132792 1.23438,-1.15623 1.17188,-1.175761 1.10157,-1.18748 1.03126,-1.18748 c -0.125,0 -0.23047,0.042969 -0.3125,0.125 -0.074219,0.074219 -0.10938,0.17969 -0.10938,0.3125 0,0.14844 0.035156,0.26172 0.10938,0.34375 0.082031,0.074219 0.1875,0.10938 0.3125,0.10938 0.082031,0 0.15625,-0.007813 0.21875,-0.03125 0.070312,-0.03125 0.13281,-0.066406 0.1875,-0.10938 v 0.39062 C 1.363291,-0.01561 1.28517,0.003921 1.20313,0.01564 1.128911,0.0234525 1.05469,0.031265 0.98438,0.031265 c -0.27344,0 -0.48438,-0.066406 -0.64062,-0.20312 -0.14844,-0.13281 -0.21875,-0.32812 -0.21875,-0.57812 0,-0.23828 0.070312,-0.42578 0.21875,-0.5625 0.15625,-0.14453 0.36719,-0.21875 0.64062,-0.21875 0.070313,0 0.14453,0.011719 0.21875,0.03125 0.082031,0.011719 0.16016,0.027344 0.23438,0.046875 z"
         id="path1022"
         inkscape:connector-curvature="0" />
    </symbol>
    <symbol
       id="b"
       overflow="visible"
       style="overflow:visible">
      <path
         d="m 0.9375,-1.1875 c -0.10547,0 -0.1875,0.039062 -0.25,0.10938 -0.054688,0.074219 -0.078125,0.18359 -0.078125,0.32812 0,0.14844 0.023437,0.26172 0.078125,0.34375 0.0625,0.074219 0.14453,0.10938 0.25,0.10938 0.10156,0 0.17969,-0.035156 0.23438,-0.10938 0.0625,-0.082031 0.09375,-0.19531 0.09375,-0.34375 0,-0.14453 -0.03125,-0.25391 -0.09375,-0.32812 C 1.117193,-1.148433 1.03907,-1.1875 0.9375,-1.1875 Z m 0,-0.34375 c 0.25781,0 0.46094,0.074219 0.60938,0.21875 0.14453,0.13672 0.21875,0.32422 0.21875,0.5625 0,0.25 -0.074219,0.44531 -0.21875,0.57812 C 1.39844,-0.03516 1.19532,0.03124 0.9375,0.03124 0.67578,0.03124 0.47266,-0.035166 0.32812,-0.17188 0.1914,-0.30469 0.125,-0.5 0.125,-0.75 c 0,-0.23828 0.066406,-0.42578 0.20312,-0.5625 0.14453,-0.14453 0.34766,-0.21875 0.60938,-0.21875 z"
         id="path1025"
         inkscape:connector-curvature="0" />
    </symbol>
    <symbol
       id="g"
       overflow="visible"
       style="overflow:visible">
      <path
         d="M 1.7344,-0.90625 V 0 H 1.25002 v -0.70312 c 0,-0.125 -0.00781,-0.20703 -0.015625,-0.25 0,-0.050781 -0.00781,-0.09375 -0.015625,-0.125 -0.023438,-0.03125 -0.046875,-0.050781 -0.078125,-0.0625 -0.03125,-0.019531 -0.070313,-0.03125 -0.10938,-0.03125 -0.10547,0 -0.1875,0.042969 -0.25,0.125 -0.054688,0.074219 -0.078125,0.17969 -0.078125,0.3125 V 1e-5 H 0.23439 v -1.5 h 0.46875 v 0.21875 c 0.070313,-0.082031 0.14844,-0.14453 0.23438,-0.1875 0.082031,-0.039062 0.17188,-0.0625 0.26562,-0.0625 0.17578,0 0.30469,0.054688 0.39062,0.15625 0.09375,0.10547 0.14062,0.26172 0.14062,0.46875 z"
         id="path1028"
         inkscape:connector-curvature="0" />
    </symbol>
    <symbol
       id="f"
       overflow="visible"
       style="overflow:visible">
      <path
         d="m 0.25,-2 h 0.85938 c 0.25,0 0.44141,0.058594 0.57812,0.17188 0.13281,0.11719 0.20312,0.27734 0.20312,0.48438 0,0.21094 -0.070313,0.37109 -0.20312,0.48438 -0.13672,0.11719 -0.32812,0.17188 -0.57812,0.17188 H 0.76563 V 2e-5 H 0.25001 Z m 0.51562,0.375 v 0.5625 h 0.28125 c 0.10156,0 0.17969,-0.019531 0.23438,-0.0625 0.050781,-0.050781 0.078125,-0.125 0.078125,-0.21875 0,-0.09375 -0.027344,-0.16016 -0.078125,-0.20312 C 1.226562,-1.597651 1.14844,-1.624995 1.04687,-1.624995 Z"
         id="path1031"
         inkscape:connector-curvature="0" />
    </symbol>
    <symbol
       id="s"
       overflow="visible"
       style="overflow:visible">
      <path
         d="M 0.23438,-1.5 H 0.70313 V 0 H 0.23438 Z m 0,-0.57812 H 0.70313 V -1.6875 H 0.23438 Z"
         id="path1034"
         inkscape:connector-curvature="0" />
    </symbol>
    <symbol
       id="r"
       overflow="visible"
       style="overflow:visible">
      <path
         d="m 1.2188,-2.0781 v 0.3125 H 0.95318 c -0.074219,0 -0.125,0.015625 -0.15625,0.046875 -0.023437,0.023438 -0.03125,0.0625 -0.03125,0.125 v 0.09375 h 0.40625 v 0.34375 H 0.76568 v 1.1562 H 0.29693 v -1.1562 h -0.25 v -0.34375 h 0.25 v -0.09375 c 0,-0.16406 0.039063,-0.28516 0.125,-0.35938 0.09375,-0.082031 0.23438,-0.125 0.42188,-0.125 z"
         id="path1037"
         inkscape:connector-curvature="0" />
    </symbol>
    <symbol
       id="q"
       overflow="visible"
       style="overflow:visible">
      <path
         d="m 1.6094,-1.25 c 0.0625,-0.09375 0.13281,-0.16016 0.21875,-0.20312 0.082031,-0.050781 0.17578,-0.078125 0.28125,-0.078125 0.16406,0 0.29688,0.054688 0.39062,0.15625 0.09375,0.10547 0.14062,0.26172 0.14062,0.46875 V 5e-6 H 2.15626 v -0.78125 -0.03125 -0.0625 c 0,-0.10156 -0.015625,-0.17578 -0.046875,-0.21875 -0.03125,-0.050781 -0.085937,-0.078125 -0.15625,-0.078125 -0.085937,0 -0.15234,0.039063 -0.20312,0.10938 C 1.695327,-0.988271 1.67189,-0.8789 1.67189,-0.73437 V 1e-5 H 1.18751 v -0.78125 c 0,-0.16406 -0.015625,-0.26953 -0.046875,-0.3125 -0.023437,-0.050781 -0.070313,-0.078125 -0.14062,-0.078125 -0.09375,0 -0.16797,0.042969 -0.21875,0.125 -0.054688,0.074219 -0.078125,0.17969 -0.078125,0.3125 V 1.5e-5 H 0.23439 v -1.5 h 0.46875 v 0.21875 c 0.0625,-0.082031 0.12891,-0.14453 0.20312,-0.1875 0.082031,-0.039062 0.16406,-0.0625 0.25,-0.0625 0.10156,0 0.19141,0.027344 0.26562,0.078125 0.082031,0.054687 0.14453,0.12109 0.1875,0.20312 z"
         id="path1040"
         inkscape:connector-curvature="0" />
    </symbol>
    <symbol
       id="p"
       overflow="visible"
       style="overflow:visible">
      <path
         d="M 1.7344,-0.90625 V 0 H 1.25002 v -0.6875 c 0,-0.13281 -0.00781,-0.22266 -0.015625,-0.26562 0,-0.050781 -0.00781,-0.09375 -0.015625,-0.125 -0.023438,-0.03125 -0.046875,-0.050781 -0.078125,-0.0625 -0.03125,-0.019531 -0.070313,-0.03125 -0.10938,-0.03125 -0.10547,0 -0.1875,0.042969 -0.25,0.125 -0.054688,0.074219 -0.078125,0.17969 -0.078125,0.3125 V 1e-5 H 0.23439 v -2.0781 h 0.46875 v 0.79688 c 0.070313,-0.082031 0.14844,-0.14453 0.23438,-0.1875 0.082031,-0.039062 0.17188,-0.0625 0.26562,-0.0625 0.17578,0 0.30469,0.054688 0.39062,0.15625 0.09375,0.10547 0.14062,0.26172 0.14062,0.46875 z"
         id="path1043"
         inkscape:connector-curvature="0" />
    </symbol>
    <symbol
       id="o"
       overflow="visible"
       style="overflow:visible">
      <path
         d="m 0.25,-2 h 0.57812 l 0.71875,1.375 V -2 H 2.03125 V 0 H 1.46875 L 0.73437,-1.375 V 0 H 0.24999 Z"
         id="path1046"
         inkscape:connector-curvature="0" />
    </symbol>
    <symbol
       id="n"
       overflow="visible"
       style="overflow:visible">
      <path
         d="M 0.21875,-0.57812 V -1.5 H 0.6875 v 0.15625 0.3125 0.23438 0.26562 c 0.007812,0.054688 0.023438,0.089844 0.046875,0.10938 0.019531,0.03125 0.046875,0.058594 0.078125,0.078125 0.03125,0.011719 0.066406,0.015625 0.10938,0.015625 0.09375,0 0.16406,-0.035156 0.21875,-0.10938 0.0625,-0.070312 0.09375,-0.17578 0.09375,-0.3125 V -1.5 H 1.71876 V 0 H 1.23438 V -0.21875 C 1.160161,-0.125 1.08204,-0.05469 1,-0.01563 0.925781,0.01562 0.84375,0.031245 0.75,0.031245 c -0.17969,0 -0.3125,-0.050781 -0.40625,-0.15625 -0.085938,-0.10156 -0.125,-0.25391 -0.125,-0.45312 z"
         id="path1049"
         inkscape:connector-curvature="0" />
    </symbol>
    <symbol
       id="m"
       overflow="visible"
       style="overflow:visible">
      <path
         d="m 0.23438,-1.5 h 0.46875 v 1.4688 c 0,0.20703 -0.046875,0.36328 -0.14062,0.46875 C 0.46876,0.53911 0.32813,0.5938 0.14063,0.5938 H -0.09375 V 0.2813 h 0.078125 c 0.09375,0 0.15625,-0.023438 0.1875,-0.0625 0.039063,-0.042969 0.0625,-0.125 0.0625,-0.25 z m 0,-0.57812 H 0.70313 V -1.6875 H 0.23438 Z"
         id="path1052"
         inkscape:connector-curvature="0" />
    </symbol>
  </defs>
  <path
     inkscape:connector-curvature="0"
     id="path1057"
     d="m 377.706,111.99624 c -14.727,35.793 -40.73,74.621 -74.137,110.99 H 186.929 L 351.469,58.446237 332.133,39.110237 167.593,203.65024 V 87.020237 c 36.379,-33.414 75.199,-59.418 110.99,-74.145 43.391,-17.8549996 77.852,-17.1169996 97.047,2.0742 19.191,19.191 19.93,53.656 2.0742,97.047003 z" />
  <path
     inkscape:connector-curvature="0"
     id="path1059"
     d="m 276.526,250.32624 c -38.211,35.914 -79.434,63.734 -117.01,78.859 -20.191,8.125 -38.422,12.18 -54.031,12.18 -11.621,0 -21.781,-2.2422 -30.215,-6.7305 l -55.938,55.934 -19.332,-19.332 55.934,-55.934 c -10.512,-19.77 -8.7266,-49.027 5.4453,-84.246 15.125,-37.57 42.945,-78.793 78.859,-117 v 116.95 l -66.391,66.391 c 1.6797,4.7266 4.1289,8.75 7.3555,11.977 3.2266,3.2266 7.25,5.6758 11.977,7.3555 l 66.395,-66.395 z" />
</svg>
